<svg xmlns="http://www.w3.org/2000/svg" xmlns:xlink="http://www.w3.org/1999/xlink" width="550" zoomAndPan="magnify" viewBox="0 0 412.5 223.499994" height="298" preserveAspectRatio="xMidYMid meet" version="1.0"><defs><g/><clipPath id="c45043f925"><path d="M 75.375 75.636719 L 336.855469 75.636719 L 336.855469 147.5625 L 75.375 147.5625 Z M 75.375 75.636719 " clip-rule="nonzero"/></clipPath><clipPath id="c62c81cfcf"><path d="M 82.4375 82.402344 L 260.949219 82.402344 L 260.949219 140.867188 L 82.4375 140.867188 Z M 82.4375 82.402344 " clip-rule="nonzero"/></clipPath></defs><g clip-path="url(#c45043f925)"><path stroke-linecap="butt" transform="matrix(0.749434, 0, 0, 0.748502, 75.373251, 75.638005)" fill="none" stroke-linejoin="miter" d="M 0.00233442 -0.00171892 L 348.906183 -0.00171892 L 348.906183 96.091263 L 0.00233442 96.091263 L 0.00233442 -0.00171892 " stroke="#000000" stroke-width="6" stroke-opacity="1" stroke-miterlimit="4"/></g><g clip-path="url(#c62c81cfcf)"><path fill="#000000" d="M 82.4375 82.402344 L 261.1875 82.402344 L 261.1875 141.46875 L 82.4375 141.46875 Z M 82.4375 82.402344 " fill-opacity="1" fill-rule="nonzero"/></g><g fill="#ffffff" fill-opacity="1"><g transform="translate(88.290023, 120.62649)"><g><path d="M 2.863281 0 L 5.332031 0 L 5.332031 -7.042969 L 9.652344 -7.042969 L 14.449219 0 L 17.425781 0 L 12.484375 -7.296875 C 15.347656 -7.996094 17.117188 -10.15625 17.117188 -13.328125 C 17.117188 -17.226562 14.421875 -19.640625 10.355469 -19.640625 L 2.863281 -19.640625 Z M 5.332031 -9.398438 L 5.332031 -17.285156 L 10.074219 -17.285156 C 12.933594 -17.285156 14.589844 -15.824219 14.589844 -13.328125 C 14.589844 -10.832031 12.933594 -9.398438 10.074219 -9.398438 Z M 5.332031 -9.398438 "/></g></g></g><g fill="#ffffff" fill-opacity="1"><g transform="translate(109.524257, 120.62649)"><g><path d="M 11.785156 0.363281 C 17.761719 0.363281 21.96875 -3.84375 21.96875 -9.820312 C 21.96875 -15.796875 17.761719 -20.007812 11.785156 -20.007812 C 5.808594 -20.007812 1.628906 -15.796875 1.628906 -9.820312 C 1.628906 -3.84375 5.808594 0.363281 11.785156 0.363281 Z M 4.152344 -9.820312 C 4.152344 -14.394531 7.265625 -17.535156 11.785156 -17.535156 C 16.300781 -17.535156 19.417969 -14.394531 19.417969 -9.820312 C 19.417969 -5.246094 16.300781 -2.105469 11.785156 -2.105469 C 7.265625 -2.105469 4.152344 -5.246094 4.152344 -9.820312 Z M 4.152344 -9.820312 "/></g></g></g><g fill="#ffffff" fill-opacity="1"><g transform="translate(135.218334, 120.62649)"><g><path d="M 7.855469 0 L 10.269531 0 L 10.269531 -7.070312 L 17.648438 -19.640625 L 14.871094 -19.640625 L 9.089844 -9.707031 L 6.539062 -14.140625 L 3.339844 -19.640625 L 0.476562 -19.640625 L 7.855469 -7.070312 Z M 7.855469 0 "/></g></g></g><g fill="#ffffff" fill-opacity="1"><g transform="translate(155.470836, 120.62649)"><g><path d="M 2.863281 0 L 14.871094 0 L 14.871094 -2.355469 L 5.332031 -2.355469 L 5.332031 -19.640625 L 2.863281 -19.640625 Z M 2.863281 0 "/></g></g></g><g fill="#ffffff" fill-opacity="1"><g transform="translate(173.339147, 120.62649)"><g><path d="M 11.785156 0.363281 C 17.761719 0.363281 21.96875 -3.84375 21.96875 -9.820312 C 21.96875 -15.796875 17.761719 -20.007812 11.785156 -20.007812 C 5.808594 -20.007812 1.628906 -15.796875 1.628906 -9.820312 C 1.628906 -3.84375 5.808594 0.363281 11.785156 0.363281 Z M 4.152344 -9.820312 C 4.152344 -14.394531 7.265625 -17.535156 11.785156 -17.535156 C 16.300781 -17.535156 19.417969 -14.394531 19.417969 -9.820312 C 19.417969 -5.246094 16.300781 -2.105469 11.785156 -2.105469 C 7.265625 -2.105469 4.152344 -5.246094 4.152344 -9.820312 Z M 4.152344 -9.820312 "/></g></g></g><g fill="#ffffff" fill-opacity="1"><g transform="translate(199.033219, 120.62649)"><g><path d="M 2.863281 0 L 5.332031 0 L 5.332031 -6.453125 L 9.511719 -6.453125 C 13.945312 -6.453125 16.808594 -9.007812 16.808594 -13.046875 C 16.808594 -17.058594 13.945312 -19.640625 9.511719 -19.640625 L 2.863281 -19.640625 Z M 5.332031 -8.753906 L 5.332031 -17.285156 L 9.457031 -17.285156 C 12.625 -17.285156 14.28125 -15.824219 14.28125 -13.019531 C 14.28125 -10.214844 12.625 -8.753906 9.457031 -8.753906 Z M 5.332031 -8.753906 "/></g></g></g><g fill="#ffffff" fill-opacity="1"><g transform="translate(219.089375, 120.62649)"><g><path d="M 2.863281 0 L 15.09375 0 L 15.09375 -2.300781 L 5.332031 -2.300781 L 5.332031 -8.867188 L 14.085938 -8.867188 L 14.085938 -11.140625 L 5.332031 -11.140625 L 5.332031 -17.339844 L 14.785156 -17.339844 L 14.785156 -19.640625 L 2.863281 -19.640625 Z M 2.863281 0 "/></g></g></g><g fill="#ffffff" fill-opacity="1"><g transform="translate(238.135753, 120.62649)"><g><path d="M 1.488281 0 L 15.488281 0 L 15.488281 -2.355469 L 4.769531 -2.355469 L 15.207031 -17.816406 L 15.207031 -19.640625 L 1.769531 -19.640625 L 1.769531 -17.285156 L 11.925781 -17.285156 L 1.488281 -1.824219 Z M 1.488281 0 "/></g></g></g><g fill="#000000" fill-opacity="1"><g transform="translate(263.329505, 120.895741)"><g><path d="M 3.816406 0.363281 C 5.554688 0.363281 6.789062 -0.871094 6.789062 -2.554688 C 6.789062 -4.238281 5.554688 -5.472656 3.816406 -5.472656 C 2.046875 -5.472656 0.8125 -4.238281 0.8125 -2.554688 C 0.8125 -0.871094 2.046875 0.363281 3.816406 0.363281 Z M 3.816406 0.363281 "/></g></g></g><g fill="#000000" fill-opacity="1"><g transform="translate(270.932762, 120.895741)"><g><path d="M 2.078125 0 L 10.410156 0 C 16.75 0 20.960938 -3.898438 20.960938 -9.820312 C 20.960938 -15.710938 16.75 -19.640625 10.410156 -19.640625 L 2.078125 -19.640625 Z M 7.742188 -5.078125 L 7.742188 -14.5625 L 10.242188 -14.5625 C 13.242188 -14.5625 15.179688 -12.710938 15.179688 -9.820312 C 15.179688 -6.929688 13.242188 -5.078125 10.242188 -5.078125 Z M 7.742188 -5.078125 "/></g></g></g><g fill="#000000" fill-opacity="1"><g transform="translate(292.844719, 120.895741)"><g><path d="M 2.078125 0 L 15.851562 0 L 15.851562 -4.628906 L 7.6875 -4.628906 L 7.6875 -7.660156 L 14.785156 -7.660156 L 14.785156 -12.207031 L 7.6875 -12.207031 L 7.6875 -15.066406 L 15.542969 -15.066406 L 15.542969 -19.640625 L 2.078125 -19.640625 Z M 2.078125 0 "/></g></g></g><g fill="#000000" fill-opacity="1"><g transform="translate(309.959052, 120.895741)"><g><path d="M 7.519531 0 L 13.132812 0 L 20.511719 -19.640625 L 14.476562 -19.640625 L 12.175781 -13.160156 L 10.351562 -8.050781 L 8.53125 -13.160156 L 6.230469 -19.640625 L 0.140625 -19.640625 Z M 7.519531 0 "/></g></g></g></svg>