<svg xmlns="http://www.w3.org/2000/svg" xmlns:xlink="http://www.w3.org/1999/xlink" width="500" zoomAndPan="magnify" viewBox="0 0 375 374.999991" height="500" preserveAspectRatio="xMidYMid meet" version="1.0"><defs><g/><clipPath id="625e723ff7"><path d="M 56.488281 151.464844 L 318.238281 151.464844 L 318.238281 223.464844 L 56.488281 223.464844 Z M 56.488281 151.464844 " clip-rule="nonzero"/></clipPath><clipPath id="ede3fa1a3e"><path d="M 63.558594 158.238281 L 238 158.238281 L 238 216.761719 L 63.558594 216.761719 Z M 63.558594 158.238281 " clip-rule="nonzero"/></clipPath></defs><g clip-path="url(#625e723ff7)"><path stroke-linecap="butt" transform="matrix(0.750202, 0, 0, 0.749268, 56.489269, 151.465449)" fill="none" stroke-linejoin="miter" d="M -0.00131637 -0.000808127 L 348.904932 -0.000808127 L 348.904932 96.092952 L -0.00131637 96.092952 L -0.00131637 -0.000808127 " stroke="#000000" stroke-width="6" stroke-opacity="1" stroke-miterlimit="4"/></g><g clip-path="url(#ede3fa1a3e)"><path fill="#000000" d="M 63.558594 158.238281 L 237.828125 158.238281 L 237.828125 217.363281 L 63.558594 217.363281 Z M 63.558594 158.238281 " fill-opacity="1" fill-rule="nonzero"/></g><g fill="#ffffff" fill-opacity="1"><g transform="translate(67.450614, 196.618259)"><g><path d="M 2.863281 0 L 5.335938 0 L 5.335938 -7.050781 L 9.660156 -7.050781 L 14.464844 0 L 17.441406 0 L 12.5 -7.304688 C 15.363281 -8.003906 17.132812 -10.167969 17.132812 -13.339844 C 17.132812 -17.246094 14.4375 -19.660156 10.363281 -19.660156 L 2.863281 -19.660156 Z M 5.335938 -9.410156 L 5.335938 -17.300781 L 10.082031 -17.300781 C 12.949219 -17.300781 14.605469 -15.839844 14.605469 -13.339844 C 14.605469 -10.839844 12.949219 -9.410156 10.082031 -9.410156 Z M 5.335938 -9.410156 "/></g></g></g><g fill="#ffffff" fill-opacity="1"><g transform="translate(88.706588, 196.618259)"><g><path d="M 11.796875 0.363281 C 17.78125 0.363281 21.992188 -3.847656 21.992188 -9.832031 C 21.992188 -15.8125 17.78125 -20.027344 11.796875 -20.027344 C 5.8125 -20.027344 1.628906 -15.8125 1.628906 -9.832031 C 1.628906 -3.847656 5.8125 0.363281 11.796875 0.363281 Z M 4.15625 -9.832031 C 4.15625 -14.410156 7.273438 -17.554688 11.796875 -17.554688 C 16.320312 -17.554688 19.4375 -14.410156 19.4375 -9.832031 C 19.4375 -5.253906 16.320312 -2.105469 11.796875 -2.105469 C 7.273438 -2.105469 4.15625 -5.253906 4.15625 -9.832031 Z M 4.15625 -9.832031 "/></g></g></g><g fill="#ffffff" fill-opacity="1"><g transform="translate(114.426971, 196.618259)"><g><path d="M 7.863281 0 L 10.28125 0 L 10.28125 -7.078125 L 17.667969 -19.660156 L 14.886719 -19.660156 L 9.101562 -9.71875 L 6.542969 -14.15625 L 3.34375 -19.660156 L 0.476562 -19.660156 L 7.863281 -7.078125 Z M 7.863281 0 "/></g></g></g><g fill="#ffffff" fill-opacity="1"><g transform="translate(134.700207, 196.618259)"><g><path d="M 2.863281 0 L 14.886719 0 L 14.886719 -2.359375 L 5.335938 -2.359375 L 5.335938 -19.660156 L 2.863281 -19.660156 Z M 2.863281 0 "/></g></g></g><g fill="#ffffff" fill-opacity="1"><g transform="translate(152.586812, 196.618259)"><g><path d="M 11.796875 0.363281 C 17.78125 0.363281 21.992188 -3.847656 21.992188 -9.832031 C 21.992188 -15.8125 17.78125 -20.027344 11.796875 -20.027344 C 5.8125 -20.027344 1.628906 -15.8125 1.628906 -9.832031 C 1.628906 -3.847656 5.8125 0.363281 11.796875 0.363281 Z M 4.15625 -9.832031 C 4.15625 -14.410156 7.273438 -17.554688 11.796875 -17.554688 C 16.320312 -17.554688 19.4375 -14.410156 19.4375 -9.832031 C 19.4375 -5.253906 16.320312 -2.105469 11.796875 -2.105469 C 7.273438 -2.105469 4.15625 -5.253906 4.15625 -9.832031 Z M 4.15625 -9.832031 "/></g></g></g><g fill="#ffffff" fill-opacity="1"><g transform="translate(178.307189, 196.618259)"><g><path d="M 2.863281 0 L 5.335938 0 L 5.335938 -6.460938 L 9.523438 -6.460938 C 13.960938 -6.460938 16.824219 -9.015625 16.824219 -13.0625 C 16.824219 -17.078125 13.960938 -19.660156 9.523438 -19.660156 L 2.863281 -19.660156 Z M 5.335938 -8.761719 L 5.335938 -17.300781 L 9.464844 -17.300781 C 12.640625 -17.300781 14.296875 -15.839844 14.296875 -13.03125 C 14.296875 -10.222656 12.640625 -8.761719 9.464844 -8.761719 Z M 5.335938 -8.761719 "/></g></g></g><g fill="#ffffff" fill-opacity="1"><g transform="translate(198.383879, 196.618259)"><g><path d="M 2.863281 0 L 15.109375 0 L 15.109375 -2.304688 L 5.335938 -2.304688 L 5.335938 -8.875 L 14.101562 -8.875 L 14.101562 -11.152344 L 5.335938 -11.152344 L 5.335938 -17.359375 L 14.800781 -17.359375 L 14.800781 -19.660156 L 2.863281 -19.660156 Z M 2.863281 0 "/></g></g></g><g fill="#ffffff" fill-opacity="1"><g transform="translate(217.449757, 196.618259)"><g><path d="M 1.488281 0 L 15.503906 0 L 15.503906 -2.359375 L 4.773438 -2.359375 L 15.222656 -17.835938 L 15.222656 -19.660156 L 1.769531 -19.660156 L 1.769531 -17.300781 L 11.9375 -17.300781 L 1.488281 -1.824219 Z M 1.488281 0 "/></g></g></g><g fill="#000000" fill-opacity="1"><g transform="translate(242.74529, 196.887784)"><g><path d="M 3.820312 0.363281 C 5.5625 0.363281 6.796875 -0.871094 6.796875 -2.554688 C 6.796875 -4.242188 5.5625 -5.476562 3.820312 -5.476562 C 2.050781 -5.476562 0.816406 -4.242188 0.816406 -2.554688 C 0.816406 -0.871094 2.050781 0.363281 3.820312 0.363281 Z M 3.820312 0.363281 "/></g></g></g><g fill="#000000" fill-opacity="1"><g transform="translate(250.356332, 196.887784)"><g><path d="M 2.078125 0 L 10.421875 0 C 16.769531 0 20.980469 -3.902344 20.980469 -9.832031 C 20.980469 -15.730469 16.769531 -19.660156 10.421875 -19.660156 L 2.078125 -19.660156 Z M 7.75 -5.082031 L 7.75 -14.578125 L 10.25 -14.578125 C 13.257812 -14.578125 15.195312 -12.722656 15.195312 -9.832031 C 15.195312 -6.9375 13.257812 -5.082031 10.25 -5.082031 Z M 7.75 -5.082031 "/></g></g></g><g fill="#000000" fill-opacity="1"><g transform="translate(272.290723, 196.887784)"><g><path d="M 2.078125 0 L 15.867188 0 L 15.867188 -4.632812 L 7.695312 -4.632812 L 7.695312 -7.667969 L 14.800781 -7.667969 L 14.800781 -12.21875 L 7.695312 -12.21875 L 7.695312 -15.082031 L 15.558594 -15.082031 L 15.558594 -19.660156 L 2.078125 -19.660156 Z M 2.078125 0 "/></g></g></g><g fill="#000000" fill-opacity="1"><g transform="translate(289.422577, 196.887784)"><g><path d="M 7.527344 0 L 13.144531 0 L 20.53125 -19.660156 L 14.492188 -19.660156 L 12.191406 -13.171875 L 10.363281 -8.0625 L 8.539062 -13.171875 L 6.234375 -19.660156 L 0.140625 -19.660156 Z M 7.527344 0 "/></g></g></g></svg>